<?xml version="1.0" encoding="utf-8"?>
<!-- Generator: Adobe Illustrator 25.2.3, SVG Export Plug-In . SVG Version: 6.00 Build 0)  -->
<svg version="1.1" id="Layer_1" xmlns="http://www.w3.org/2000/svg" xmlns:xlink="http://www.w3.org/1999/xlink" x="0px" y="0px"
	 viewBox="0 0 367.1 34.3" style="enable-background:new 0 0 367.1 34.3;" xml:space="preserve">
<style type="text/css">
	.st0{fill:#FFFFFF;}
</style>
<g>
	<g>
		<g>
			<path class="st0" d="M196.1,15.2c0.6-1,1.3-1.8,2.4-2.4c1-0.6,2.2-0.8,3.5-0.8c1.1,0,2.1,0.2,3.1,0.7c1,0.5,1.7,1.2,2.3,2.2
				c0.6,1,0.9,2.1,0.9,3.5c0,1.3-0.3,2.5-0.8,3.5c-0.6,1-1.3,1.8-2.4,2.4c-1,0.6-2.2,0.8-3.5,0.8c-1.1,0-2.1-0.2-3.1-0.7
				c-1-0.5-1.7-1.2-2.3-2.2c-0.6-1-0.9-2.1-0.9-3.5C195.3,17.4,195.5,16.2,196.1,15.2z M206.1,15.6c-0.5-0.9-1.1-1.6-1.9-2.1
				c-0.8-0.5-1.7-0.8-2.7-0.8c-0.9,0-1.7,0.2-2.5,0.7c-0.7,0.5-1.3,1.1-1.7,2c-0.4,0.9-0.6,1.8-0.6,3c0,1.1,0.2,2.1,0.7,3
				c0.5,0.9,1.1,1.6,1.9,2.1c0.8,0.5,1.7,0.8,2.7,0.8c0.9,0,1.7-0.2,2.5-0.7c0.7-0.5,1.3-1.1,1.7-2c0.4-0.9,0.6-1.8,0.6-3
				C206.8,17.5,206.6,16.5,206.1,15.6z"/>
		</g>
		<path class="st0" d="M177.7,33.9c0.1-0.1,0.3-0.3,0.4-0.5c0.1-0.3,0.2-0.6,0.2-1.1V1.9c0-0.5-0.1-0.9-0.2-1.1
			c-0.1-0.3-0.3-0.4-0.4-0.5c-0.1-0.1-0.2-0.1-0.2-0.1h2.3c0,0-0.1,0-0.2,0.1c-0.1,0.1-0.3,0.3-0.4,0.5C179,1.1,179,1.4,179,1.9
			v30.3c0,0.5,0.1,0.9,0.2,1.1c0.1,0.3,0.3,0.4,0.4,0.5c0.1,0.1,0.2,0.1,0.2,0.1h-2.4C177.4,34,177.5,34,177.7,33.9z"/>
		<g>
			<path class="st0" d="M13.1,12c-0.2,0-0.3,0.2-0.5,0.4c-0.2,0.2-0.3,0.7-0.3,1.3v11.7L2.7,14.2v9c0,0.6,0.1,1,0.3,1.3
				c0.2,0.2,0.4,0.4,0.6,0.4H1c0.2,0,0.4-0.2,0.5-0.4c0.2-0.2,0.3-0.7,0.3-1.3v-9.4c0-0.4-0.1-0.8-0.4-1.2c-0.3-0.3-0.6-0.6-1.1-0.7
				h2.3l8.8,10.2v-8.5c0-1-0.3-1.5-1-1.7H13.1z"/>
		</g>
		<path class="st0" d="M31.1,24.8c0.1-0.1,0.3-0.3,0.4-0.5c0.1-0.3,0.2-0.6,0.2-1.1v-9.4c0-0.5-0.1-0.9-0.2-1.1
			c-0.1-0.3-0.3-0.4-0.4-0.5C30.9,12,30.8,12,30.8,12h3c0,0-0.1,0-0.2,0.1c-0.1,0.1-0.3,0.3-0.4,0.5c-0.1,0.3-0.2,0.6-0.2,1.1v9.4
			c0,0.5,0.1,0.9,0.2,1.1c0.1,0.3,0.3,0.4,0.4,0.5c0.1,0.1,0.2,0.1,0.2,0.1h-3C30.8,24.9,30.9,24.9,31.1,24.8z M31.7,8.9
			c-0.2-0.2-0.2-0.4-0.2-0.6c0-0.2,0.1-0.4,0.2-0.6c0.2-0.2,0.4-0.3,0.6-0.3c0.3,0,0.5,0.1,0.6,0.3c0.2,0.2,0.2,0.4,0.2,0.6
			c0,0.2-0.1,0.4-0.2,0.6c-0.2,0.2-0.4,0.3-0.6,0.3C32,9.2,31.8,9.1,31.7,8.9z"/>
		<path class="st0" d="M52.2,12.6c-0.1-0.3-0.3-0.4-0.4-0.5C51.6,12,51.6,12,51.6,12h3c0,0-0.1,0-0.2,0.1c-0.1,0.1-0.3,0.3-0.4,0.5
			c-0.1,0.3-0.2,0.6-0.2,1.1v10.4h3.1c0.6,0,1-0.1,1.5-0.3c0.4-0.2,0.7-0.5,0.9-0.9l-0.3,2h-7.2c0,0,0.1,0,0.2-0.1
			c0.1-0.1,0.3-0.3,0.4-0.6c0.1-0.3,0.2-0.7,0.2-1.2v-9.3C52.4,13.2,52.3,12.9,52.2,12.6z"/>
		<path class="st0" d="M85.3,20.4c0,1-0.2,1.8-0.6,2.5c-0.4,0.7-0.9,1.2-1.6,1.6c-0.7,0.4-1.5,0.6-2.4,0.6c-1.5,0-2.6-0.4-3.4-1.2
			c-0.8-0.8-1.2-2-1.2-3.4v-6.7c0-0.5-0.1-0.9-0.2-1.1c-0.1-0.3-0.2-0.4-0.4-0.5C75.4,12,75.3,12,75.3,12h2.9c0,0-0.1,0-0.2,0.1
			c-0.1,0.1-0.3,0.3-0.4,0.5c-0.1,0.2-0.2,0.6-0.2,1.1v6.8c0,1.2,0.3,2.1,0.9,2.8c0.6,0.7,1.4,1,2.6,1c1,0,1.9-0.3,2.5-0.9
			c0.6-0.6,0.9-1.6,0.9-2.8v-6.8c0-0.5-0.1-0.9-0.2-1.1c-0.1-0.3-0.3-0.4-0.4-0.5C83.5,12,83.4,12,83.4,12h2.7c0,0-0.1,0-0.2,0.1
			c-0.1,0.1-0.3,0.3-0.4,0.5c-0.1,0.3-0.2,0.6-0.2,1.1V20.4z M78.1,8.8c-0.1-0.1-0.2-0.3-0.2-0.5c0-0.2,0.1-0.4,0.2-0.5
			c0.1-0.1,0.3-0.2,0.5-0.2c0.2,0,0.4,0.1,0.5,0.2s0.2,0.3,0.2,0.5c0,0.2-0.1,0.4-0.2,0.5C79,8.9,78.9,9,78.6,9
			C78.4,9,78.2,8.9,78.1,8.8z M82.4,8.8c-0.1-0.1-0.2-0.3-0.2-0.5c0-0.2,0.1-0.4,0.2-0.5s0.3-0.2,0.5-0.2s0.4,0.1,0.5,0.2
			c0.1,0.1,0.2,0.3,0.2,0.5c0,0.2-0.1,0.4-0.2,0.5C83.3,8.9,83.1,9,82.9,9S82.5,8.9,82.4,8.8z"/>
		<path class="st0" d="M105.6,12.8v5.3h2.3c0.5,0,0.8-0.1,0.9-0.2c0.2-0.1,0.2-0.2,0.2-0.3v1.8c0,0,0-0.1-0.1-0.2
			c-0.1-0.1-0.2-0.2-0.3-0.2c-0.2-0.1-0.4-0.1-0.7-0.1h-2.3v4.3c0,0.5,0.1,0.9,0.2,1.1c0.1,0.3,0.3,0.4,0.4,0.5
			c0.1,0.1,0.2,0.1,0.2,0.1h-3c0,0,0.1,0,0.2-0.1c0.1-0.1,0.3-0.3,0.4-0.5c0.1-0.3,0.2-0.6,0.2-1.1v-9.3c0-0.5-0.1-0.9-0.2-1.2
			c-0.1-0.3-0.3-0.5-0.4-0.6c-0.1-0.1-0.2-0.1-0.2-0.1h6.8v1.9c-0.1-0.3-0.2-0.6-0.5-0.8c-0.3-0.2-0.7-0.4-1.2-0.4H105.6z"/>
		<path class="st0" d="M127.6,24.9c0,0,0.1,0,0.2-0.1c0.1-0.1,0.3-0.3,0.4-0.6c0.1-0.3,0.2-0.7,0.2-1.2v-9.2c0-0.5-0.1-0.9-0.2-1.2
			c-0.1-0.3-0.3-0.5-0.4-0.6c-0.1-0.1-0.2-0.1-0.2-0.1h6.8v1.9c-0.2-0.7-0.9-1.1-2-1.1h-2.6v5.3h2.3c0.2,0,0.5,0,0.6-0.1
			c0.2-0.1,0.3-0.2,0.4-0.3c0.1-0.1,0.1-0.1,0.1-0.2v1.8c0,0-0.1-0.1-0.1-0.2c-0.1-0.1-0.2-0.2-0.4-0.2s-0.4-0.1-0.6-0.1h-2.3v5.3
			h2.9c0.6,0,1-0.1,1.5-0.3c0.4-0.2,0.7-0.5,0.9-0.9l-0.3,2H127.6z"/>
		<path class="st0" d="M157.7,18c0.4-0.3,0.7-0.6,1-1c0.2-0.4,0.3-0.9,0.3-1.4c0-0.5-0.1-0.9-0.3-1.4c-0.2-0.4-0.5-0.8-0.9-1.1
			c-0.4-0.3-0.9-0.4-1.6-0.4h-1.6v10.4c0,0.5,0.1,0.9,0.2,1.1c0.1,0.3,0.3,0.4,0.4,0.5c0.1,0.1,0.2,0.1,0.2,0.1h-3
			c0,0,0.1,0,0.2-0.1c0.1-0.1,0.3-0.3,0.4-0.5c0.1-0.2,0.2-0.6,0.2-1.1v-9.4c0-0.5-0.1-0.9-0.2-1.2c-0.1-0.3-0.3-0.4-0.4-0.5
			c-0.1-0.1-0.2-0.1-0.2-0.1h3.7c1,0,1.8,0.2,2.4,0.5c0.6,0.3,1.1,0.7,1.4,1.2c0.3,0.5,0.4,1.1,0.4,1.7c0,0.5-0.1,1-0.4,1.5
			c-0.2,0.5-0.6,0.9-1,1.3c-0.4,0.4-1,0.6-1.5,0.7l-0.6,0.1l3.3,4.2c0.4,0.5,0.8,0.9,1.1,1.1c0.3,0.3,0.5,0.4,0.6,0.5
			c0.1,0.1,0.2,0.1,0.2,0.1h-1.8l-5.1-6.5h1C156.7,18.4,157.2,18.3,157.7,18z"/>
		<path class="st0" d="M230.7,18.1c0.4-0.3,0.7-0.6,0.9-1c0.2-0.4,0.3-0.9,0.3-1.3c0-0.5-0.1-0.9-0.3-1.4c-0.2-0.4-0.5-0.8-0.9-1
			c-0.4-0.3-0.9-0.4-1.5-0.4h-1.6v10.2c0,0.5,0.1,0.9,0.2,1.1c0.1,0.3,0.3,0.4,0.4,0.5c0.1,0.1,0.2,0.1,0.2,0.1h-2.9
			c0,0,0.1,0,0.2-0.1c0.1-0.1,0.3-0.3,0.4-0.5c0.1-0.2,0.2-0.6,0.2-1.1v-9.2c0-0.5-0.1-0.9-0.2-1.2c-0.1-0.3-0.2-0.4-0.4-0.5
			c-0.1-0.1-0.2-0.1-0.2-0.1h3.6c1,0,1.7,0.2,2.4,0.5c0.6,0.3,1.1,0.7,1.3,1.2c0.3,0.5,0.4,1,0.4,1.6c0,0.5-0.1,1-0.3,1.4
			c-0.2,0.5-0.6,0.9-1,1.2c-0.4,0.3-0.9,0.6-1.5,0.7l-0.3,0.1l3.2,4.1c0.4,0.5,0.8,0.8,1.1,1.1c0.3,0.3,0.5,0.4,0.6,0.5
			c0.1,0.1,0.2,0.1,0.2,0.1h-2.2l-5-6.4h1.1C229.8,18.5,230.3,18.3,230.7,18.1z"/>
		<path class="st0" d="M262.4,24.8c0.1,0,0.3-0.2,0.5-0.4c0.2-0.2,0.3-0.7,0.3-1.3v-9.2l-4.8,11.1l-4.9-11.1V23
			c0,0.7,0.1,1.1,0.3,1.4c0.2,0.3,0.4,0.4,0.6,0.4h-2.7c0.2,0,0.4-0.2,0.6-0.4c0.2-0.3,0.3-0.7,0.3-1.4v-9.2c0-0.6-0.1-1-0.3-1.2
			c-0.2-0.2-0.4-0.4-0.6-0.4h2.5l4.5,10.3l4.4-10.3h2.2c-0.2,0-0.3,0.2-0.5,0.4c-0.2,0.2-0.3,0.7-0.3,1.3v9.3c0,0.6,0.1,1,0.3,1.3
			c0.2,0.2,0.4,0.4,0.5,0.4H262.4z"/>
		<path class="st0" d="M289.4,19.2l-2-4.9l-2,4.9l-0.3,0.8l-1.2,2.9c-0.2,0.5-0.3,0.8-0.3,1.1c0,0.4,0.2,0.7,0.6,0.9h-2.6
			c0.1,0,0.3-0.1,0.5-0.4c0.2-0.2,0.5-0.7,0.8-1.5l4.8-11.4l4.8,11.5c0.3,0.7,0.5,1.1,0.8,1.4c0.3,0.2,0.5,0.4,0.6,0.4h-3.1
			c0.3-0.1,0.5-0.4,0.5-0.7c0-0.3-0.1-0.6-0.3-1.1l-1.3-3.1L289.4,19.2z"/>
		<path class="st0" d="M322.2,12.2c-0.2,0-0.3,0.2-0.5,0.4c-0.2,0.2-0.2,0.7-0.2,1.3v11.5l-9.4-11v8.8c0,0.6,0.1,1,0.3,1.2
			c0.2,0.2,0.4,0.4,0.6,0.4h-2.6c0.2,0,0.3-0.2,0.5-0.4c0.2-0.2,0.3-0.7,0.3-1.3V14c0-0.4-0.1-0.8-0.4-1.1c-0.3-0.3-0.6-0.6-1.1-0.6
			h2.3l8.6,10.1v-8.4c0-0.9-0.3-1.5-1-1.7H322.2z"/>
		<path class="st0" d="M340.4,12.8c-0.1-0.3-0.2-0.4-0.4-0.5c-0.1-0.1-0.2-0.1-0.2-0.1h2.9c0,0-0.1,0-0.2,0.1
			c-0.1,0.1-0.3,0.3-0.4,0.5c-0.1,0.3-0.2,0.6-0.2,1.1v10.2h3c0.6,0,1-0.1,1.4-0.3c0.4-0.2,0.7-0.5,0.9-0.9l-0.3,2h-7.1
			c0,0,0.1,0,0.2-0.1c0.1-0.1,0.3-0.3,0.4-0.6c0.1-0.3,0.2-0.7,0.2-1.2v-9.1C340.6,13.4,340.6,13,340.4,12.8z"/>
		<path class="st0" d="M364.1,24.8c0.1-0.1,0.3-0.3,0.4-0.5c0.1-0.3,0.2-0.6,0.2-1.1v-9.2c0-0.5-0.1-0.9-0.2-1.1
			c-0.1-0.3-0.2-0.4-0.4-0.5c-0.1-0.1-0.2-0.1-0.2-0.1h2.9c0,0-0.1,0-0.2,0.1c-0.1,0.1-0.3,0.3-0.4,0.5c-0.1,0.3-0.2,0.6-0.2,1.1
			v9.2c0,0.5,0.1,0.9,0.2,1.1c0.1,0.3,0.3,0.4,0.4,0.5c0.1,0.1,0.2,0.1,0.2,0.1h-2.9C363.9,24.9,364,24.9,364.1,24.8z"/>
	</g>
</g>
</svg>
