<svg width="24" height="24" viewBox="0 0 24 24" fill="none" xmlns="http://www.w3.org/2000/svg">
<path d="M12.0005 2.5729C12.0005 2.25655 12.2571 1.99838 12.573 2.01649V2.01649C12.8888 2.0346 13.1143 2.32042 13.0781 2.63469L12.6627 6.2453C12.6429 6.41749 12.4872 6.54007 12.3142 6.53015V6.53015C12.1411 6.52023 12.0005 6.38065 12.0005 6.20733L12.0005 2.5729Z" fill="#18181B" fill-opacity="0.5"/>
<path d="M16.0671 3.49512C16.2036 3.20971 16.5465 3.08752 16.8236 3.2401V3.2401C17.1007 3.39268 17.1809 3.7478 17.0127 4.01573L15.4918 6.43839C15.3874 6.6048 15.1682 6.65405 14.9961 6.55928V6.55928C14.824 6.46452 14.7484 6.25301 14.8332 6.07574L16.0671 3.49512Z" fill="#18181B" fill-opacity="0.5"/>
<path d="M19.7032 6.56504C19.9617 6.38265 20.3206 6.44352 20.4879 6.71203V6.71203C20.6552 6.98053 20.5517 7.32953 20.274 7.48117L16.4023 9.59588C16.2706 9.66782 16.1061 9.61889 16.0268 9.49152V9.49152C15.9474 9.36414 15.976 9.19499 16.0986 9.10847L19.7032 6.56504Z" fill="#18181B" fill-opacity="0.5"/>
<path d="M21.4072 11.3792C21.7229 11.3584 21.9974 11.5975 22.0001 11.9139V11.9139C22.0028 12.2302 21.7325 12.474 21.4165 12.4586L18.8206 12.3322C18.6165 12.3223 18.4603 12.1487 18.4585 11.9444V11.9444C18.4567 11.7401 18.61 11.5639 18.8138 11.5504L21.4072 11.3792Z" fill="#18181B" fill-opacity="0.5"/>
<path d="M12.5719 21.4099C12.5911 21.7257 12.3506 21.999 12.0342 22V22C11.7179 22.0011 11.4755 21.7295 11.4925 21.4136L11.623 18.9962C11.6343 18.7869 11.8132 18.6275 12.0228 18.6268V18.6268C12.2325 18.626 12.4125 18.7842 12.4252 18.9935L12.5719 21.4099Z" fill="#18181B" fill-opacity="0.5"/>
<path d="M17.1299 19.9096C17.302 20.1751 17.2272 20.5313 16.9523 20.688V20.688C16.6775 20.8446 16.3328 20.7275 16.1921 20.4441L14.5272 17.0902C14.4516 16.9379 14.5143 16.7539 14.662 16.6697V16.6697C14.8098 16.5855 15 16.6254 15.0925 16.768L17.1299 19.9096Z" fill="#18181B" fill-opacity="0.5"/>
<path d="M20.6332 15.7881C20.9229 15.9152 21.0561 16.2539 20.9126 16.5359V16.5359C20.7692 16.8178 20.4168 16.9094 20.1436 16.75L16.3114 14.5147C16.1824 14.4394 16.1396 14.2742 16.2073 14.1411V14.1411C16.275 14.008 16.4338 13.9454 16.5706 14.0054L20.6332 15.7881Z" fill="#18181B" fill-opacity="0.5"/>
<path d="M7.93338 3.49512C7.79691 3.20972 7.454 3.08752 7.17687 3.2401V3.2401C6.89975 3.39268 6.81963 3.7478 6.98782 4.01573L8.21366 5.96848C8.32695 6.14895 8.5646 6.20237 8.75127 6.09959V6.09959C8.93793 5.99682 9.01988 5.76744 8.92796 5.5752L7.93338 3.49512Z" fill="#18181B" fill-opacity="0.5"/>
<path d="M4.29726 6.56504C4.03878 6.38265 3.67987 6.44352 3.51258 6.71203V6.71203C3.34529 6.98053 3.44883 7.32953 3.72647 7.48117L7.23308 9.39645C7.37571 9.47435 7.55377 9.42137 7.63972 9.28343V9.28343C7.72566 9.14549 7.69475 8.9623 7.56195 8.8686L4.29726 6.56504Z" fill="#18181B" fill-opacity="0.5"/>
<path d="M2.59328 11.3792C2.27761 11.3584 2.0031 11.5975 2.00037 11.9139V11.9139C1.99765 12.2302 2.26799 12.474 2.58397 12.4586L4.74092 12.3536C4.95812 12.343 5.12444 12.1583 5.12632 11.9408V11.9408C5.12819 11.7234 4.96508 11.5358 4.7481 11.5215L2.59328 11.3792Z" fill="#18181B" fill-opacity="0.5"/>
<path d="M6.87059 19.9096C6.69846 20.1751 6.77333 20.5313 7.04817 20.688V20.688C7.32302 20.8446 7.6677 20.7275 7.80836 20.4441L9.68433 16.665C9.75362 16.5254 9.69617 16.3568 9.56079 16.2796V16.2796C9.4254 16.2025 9.25105 16.239 9.16626 16.3697L6.87059 19.9096Z" fill="#18181B" fill-opacity="0.5"/>
<path d="M3.36732 15.7881C3.07763 15.9152 2.94435 16.2539 3.08784 16.5359V16.5359C3.23134 16.8178 3.58366 16.9094 3.85692 16.75L5.61139 15.7266C5.80254 15.6151 5.86601 15.3703 5.76563 15.173V15.173C5.66525 14.9758 5.42993 14.883 5.22728 14.9719L3.36732 15.7881Z" fill="#18181B" fill-opacity="0.5"/>
<path d="M4.73086 18.0027C4.48693 18.2042 4.45129 18.5664 4.66636 18.7984V18.7984C4.88142 19.0304 5.24537 19.0223 5.46468 18.7943L6.87275 17.3305C7.02616 17.171 7.0203 16.9181 6.86986 16.7558V16.7558C6.71941 16.5935 6.46768 16.5685 6.29704 16.7094L4.73086 18.0027Z" fill="#18181B" fill-opacity="0.5"/>
<path d="M9.08402 20.965C8.98617 21.2658 9.15039 21.5907 9.45634 21.6712V21.6712C9.76229 21.7516 10.0651 21.5496 10.1279 21.2395L10.5313 19.2488C10.5752 19.032 10.4346 18.8216 10.2206 18.7654V18.7654C10.0066 18.7091 9.78074 18.823 9.71229 19.0334L9.08402 20.965Z" fill="#18181B" fill-opacity="0.5"/>
<path d="M14.0454 21.2027C14.114 21.5115 14.4206 21.7079 14.7249 21.6217V21.6217C15.0293 21.5355 15.1874 21.2075 15.0839 20.9086L14.4195 18.9892C14.3471 18.7801 14.1191 18.6704 13.9062 18.7307V18.7307C13.6933 18.791 13.5567 19.0039 13.6047 19.22L14.0454 21.2027Z" fill="#18181B" fill-opacity="0.5"/>
<path d="M18.369 18.9505C18.5827 19.1837 18.9463 19.2007 19.167 18.974V18.974C19.3876 18.7472 19.3607 18.3842 19.1217 18.1769L17.5873 16.8461C17.4201 16.7011 17.1679 16.72 17.0135 16.8786V16.8786C16.8592 17.0372 16.8472 17.2898 16.9967 17.453L18.369 18.9505Z" fill="#18181B" fill-opacity="0.5"/>
<path d="M21.0382 14.6803C21.3415 14.7703 21.6619 14.5976 21.7344 14.2896V14.2896C21.8068 13.9817 21.5969 13.6843 21.2853 13.6296L19.2847 13.2785C19.0668 13.2402 18.8602 13.3863 18.8095 13.6017V13.6017C18.7589 13.8171 18.8787 14.0399 19.0908 14.1028L21.0382 14.6803Z" fill="#18181B" fill-opacity="0.5"/>
<path d="M21.1878 9.88929C21.4962 9.81845 21.6903 9.51051 21.6019 9.20674V9.20674C21.5136 8.90298 21.1845 8.74724 20.8863 8.85285L18.9717 9.53094C18.7631 9.60482 18.6551 9.83355 18.7169 10.046V10.046C18.7787 10.2585 18.9926 10.3936 19.2083 10.3441L21.1878 9.88929Z" fill="#18181B" fill-opacity="0.5"/>
<path d="M18.887 5.56258C19.1181 5.34655 19.1314 4.98276 18.9025 4.76439V4.76439C18.6736 4.54603 18.3108 4.57649 18.1059 4.81752L16.7904 6.36504C16.6471 6.53365 16.6684 6.78571 16.8286 6.93846V6.93846C16.9887 7.09122 17.2415 7.10069 17.4031 6.94957L18.887 5.56258Z" fill="#18181B" fill-opacity="0.5"/>
<path d="M15.1428 3.11219C15.2483 2.81393 15.0923 2.48497 14.7885 2.39676V2.39676C14.4847 2.30854 14.1769 2.50284 14.1062 2.81119L13.6524 4.79099C13.603 5.00669 13.7382 5.22051 13.9507 5.28222V5.28222C14.1632 5.34393 14.3919 5.23577 14.4657 5.02713L15.1428 3.11219Z" fill="#18181B" fill-opacity="0.5"/>
<path d="M10.5053 2.69215C10.4552 2.37979 10.1608 2.16559 9.85184 2.23355V2.23355C9.54287 2.3015 9.36557 2.61945 9.45111 2.92402L10.0003 4.87951C10.0601 5.09256 10.2812 5.21559 10.4973 5.16805V5.16805C10.7134 5.12051 10.8624 4.91609 10.8274 4.69759L10.5053 2.69215Z" fill="#18181B" fill-opacity="0.5"/>
<path d="M6.09044 4.65509C5.89213 4.40861 5.53032 4.36836 5.2956 4.58045V4.58045C5.06088 4.79255 5.06437 5.15657 5.28956 5.37877L6.73536 6.80537C6.89288 6.9608 7.14584 6.95816 7.31004 6.80979V6.80979C7.47423 6.66142 7.50241 6.41003 7.36369 6.23761L6.09044 4.65509Z" fill="#18181B" fill-opacity="0.5"/>
<path d="M3.18794 8.65053C2.89223 8.53812 2.55972 8.68631 2.46443 8.98797V8.98797C2.36914 9.28963 2.55619 9.60194 2.86281 9.6798L4.83147 10.1797C5.04596 10.2342 5.26287 10.104 5.32953 9.89301V9.89301C5.39619 9.68198 5.29341 9.45084 5.08655 9.37221L3.18794 8.65053Z" fill="#18181B" fill-opacity="0.5"/>
<path d="M2.72536 13.6892C2.41412 13.7458 2.20612 14.0446 2.28053 14.3521V14.3521C2.35493 14.6596 2.67652 14.8302 2.97923 14.7383L7.04531 13.504C7.19356 13.459 7.27643 13.3025 7.23999 13.1519V13.1519C7.20356 13.0014 7.05829 12.9001 6.90587 12.9278L2.72536 13.6892Z" fill="#18181B" fill-opacity="0.5"/>
</svg>
